<svg xmlns="http://www.w3.org/2000/svg" width="26.28" height="26.82"><g data-name="그룹 2501" clip-path="url(&quot;#a&quot;)"><path d="M16.394 14.93c2.693-1.237 4.57-3.953 4.57-7.106C20.965 3.51 17.456 0 13.142 0 8.826 0 5.317 3.51 5.317 7.824c0 3.162 1.888 5.885 4.594 7.118C4.583 16.309.463 20.958 0 26.638l2.228.182c.46-5.638 5.258-10.054 10.922-10.054 5.661 0 10.35 4.242 10.905 9.867l2.225-.22a13.13 13.13 0 0 0-9.886-11.482M7.552 7.824a5.595 5.595 0 0 1 5.589-5.589 5.595 5.595 0 0 1 5.588 5.589 5.595 5.595 0 0 1-5.588 5.589 5.595 5.595 0 0 1-5.589-5.589" fill="#818181" fill-rule="evenodd" data-name="패스 3617"/></g><defs><clipPath id="a"><path d="M0 0h26.28v26.82H0V0z" data-name="사각형 3957"/></clipPath></defs></svg>